<svg version="1.1" viewBox="0 0 100 100" xmlns="http://www.w3.org/2000/svg">
	<rect width="100" height="100" rx="6" ry="6" fill="#008000"/>
	<g transform="matrix(3.9997 0 0 3.9997 18.002 16.005)" fill="#ececec" stroke-width=".25002">
		<path d="m2.813 1a1 1 0 00-.813 1v13a1 1 0 001 1h10a1 1 0 001-1v-9.438a1 1 0 00-.281-.718l-3.563-3.564a1 1 0 00-.718-.28h-6.438a1 1 0 00-.093 0 1 1 0 00-.094 0zm1.187 2h5v3h3v8h-8z" overflow="visible"/>
		<path d="m6.419 4.999c-.86 0-1.557.722-1.557 1.582s.696 1.557 1.557 1.557c.86 0 1.581-.696 1.581-1.558a1.6 1.6 0 00-1.58-1.58zm0 1.002c.32 0 .58.26.58.58s-.26.554-.58.554a.537.537 0 01-.554-.554c0-.32.234-.58.554-.58zm2.581 1.999h2v1h-2zm-4 2h6v1h-6zm0 2h6v1h-6z" overflow="visible"/>
	</g>
</svg>
