<?xml version="1.0" standalone="no"?>
<!DOCTYPE svg PUBLIC "-//W3C//DTD SVG 20010904//EN"
 "http://www.w3.org/TR/2001/REC-SVG-20010904/DTD/svg10.dtd">
<svg version="1.0" xmlns="http://www.w3.org/2000/svg"
 width="700.000000pt" height="700.000000pt" viewBox="0 0 700.000000 700.000000"
 preserveAspectRatio="xMidYMid meet">
<metadata>
Created by potrace 1.11, written by Peter Selinger 2001-2013
</metadata>
<g transform="translate(0.000000,700.000000) scale(0.100000,-0.100000)"
fill="#000000" stroke="none">
<path d="M2630 5537 c0 -4 108 -221 239 -484 l239 -478 -31 -8 c-116 -29 -296
-83 -377 -113 -137 -51 -161 -61 -308 -135 -309 -156 -550 -362 -677 -578
l-38 -64 -23 94 c-81 317 -219 476 -484 552 -110 32 -192 42 -413 51 -87 3
-121 -6 -70 -19 159 -39 288 -320 321 -695 15 -174 8 -584 -13 -720 -31 -208
-84 -367 -156 -465 -48 -67 -119 -120 -171 -130 -11 -3 -23 -7 -26 -10 -6 -6
193 1 308 10 203 17 377 81 491 182 37 33 108 131 137 188 24 49 78 214 89
274 l8 45 44 -73 c63 -106 152 -207 287 -327 61 -53 284 -195 391 -248 62 -31
114 -56 117 -56 3 0 34 -13 68 -28 91 -41 316 -117 438 -147 101 -25 170 -39
405 -79 36 -6 113 -14 215 -22 41 -3 76 -7 77 -8 2 -1 -2 -18 -7 -37 -6 -19
-13 -47 -15 -64 -3 -16 -10 -44 -16 -61 -5 -17 -11 -41 -14 -53 -2 -11 -11
-49 -20 -84 -9 -34 -18 -69 -20 -77 -2 -8 -11 -44 -20 -80 -9 -36 -18 -72 -20
-80 -3 -13 -12 -51 -29 -120 -2 -8 -12 -44 -21 -80 -9 -36 -19 -73 -21 -83 -2
-10 -6 -27 -9 -38 -7 -21 -4 -22 90 -20 350 7 577 161 980 666 48 61 95 119
104 130 9 11 43 55 75 98 39 52 68 79 85 83 231 50 524 153 759 266 129 62
357 201 392 238 3 3 19 16 35 29 34 26 159 146 192 185 79 92 151 228 179 335
16 66 22 200 11 261 -47 258 -263 519 -597 722 -125 76 -395 208 -424 208 -7
0 -16 4 -22 9 -13 13 -325 115 -417 137 l-78 18 -41 75 c-41 76 -136 237 -151
256 -4 6 -32 44 -63 85 -122 166 -297 314 -462 391 -101 46 -245 91 -370 114
-15 3 -38 7 -51 10 -24 5 -127 18 -231 30 -100 12 -181 15 -527 21 -189 4
-343 4 -343 1z m2455 -1775 c58 -30 114 -87 138 -140 31 -67 30 -180 -1 -243
-50 -102 -136 -158 -254 -167 -62 -4 -74 -2 -133 27 -166 82 -217 276 -113
428 32 47 97 96 149 112 53 16 168 7 214 -17z"/>
</g>
</svg>
